<svg aria-hidden="true" style="width:0;height:0;position:absolute;overflow:hidden" xmlns="http://www.w3.org/2000/svg"><defs><symbol id="icon-heart" viewBox="0 0 32 32"><path d="M29.193 5.265c-3.629-3.596-9.432-3.671-13.191-.288-3.76-3.383-9.561-3.308-13.192.288a9.42 9.42 0 0 0 0 13.415l11.053 10.941a3.042 3.042 0 0 0 4.278 0L29.194 18.68a9.418 9.418 0 0 0-.001-13.415zm-1.425 12.003L16.715 28.209a1.012 1.012 0 0 1-1.425 0L4.237 17.268a7.443 7.443 0 0 1 0-10.591c2.844-2.815 7.416-2.914 10.409-.222l1.356 1.22 1.355-1.22c2.994-2.692 7.566-2.594 10.41.222a7.444 7.444 0 0 1 .001 10.591zM9.253 7.501a.5.5 0 1 1 0 1h-.001a3.25 3.25 0 0 0-3.249 3.249v.001a.5.5 0 0 1-1 0 4.25 4.25 0 0 1 4.246-4.249l.004-.001z"/></symbol><symbol id="icon-search" viewBox="0 0 32 32"><path d="M19.427 20.427a8.5 8.5 0 1 1 1.083-.917l5.997 5.997a.699.699 0 0 1-.008.992.7.7 0 0 1-.992.008l-6.081-6.081zM14.5 21a7.5 7.5 0 1 0 0-15 7.5 7.5 0 0 0 0 15z"/></symbol><symbol id="icon-film" viewBox="0 0 30 28"><path d="M6 25v-2c0-.547-.453-1-1-1H3c-.547 0-1 .453-1 1v2c0 .547.453 1 1 1h2c.547 0 1-.453 1-1zm0-6v-2c0-.547-.453-1-1-1H3c-.547 0-1 .453-1 1v2c0 .547.453 1 1 1h2c.547 0 1-.453 1-1zm0-6v-2c0-.547-.453-1-1-1H3c-.547 0-1 .453-1 1v2c0 .547.453 1 1 1h2c.547 0 1-.453 1-1zm16 12v-8c0-.547-.453-1-1-1H9c-.547 0-1 .453-1 1v8c0 .547.453 1 1 1h12c.547 0 1-.453 1-1zM6 7V5c0-.547-.453-1-1-1H3c-.547 0-1 .453-1 1v2c0 .547.453 1 1 1h2c.547 0 1-.453 1-1zm22 18v-2c0-.547-.453-1-1-1h-2c-.547 0-1 .453-1 1v2c0 .547.453 1 1 1h2c.547 0 1-.453 1-1zm-6-12V5c0-.547-.453-1-1-1H9c-.547 0-1 .453-1 1v8c0 .547.453 1 1 1h12c.547 0 1-.453 1-1zm6 6v-2c0-.547-.453-1-1-1h-2c-.547 0-1 .453-1 1v2c0 .547.453 1 1 1h2c.547 0 1-.453 1-1zm0-6v-2c0-.547-.453-1-1-1h-2c-.547 0-1 .453-1 1v2c0 .547.453 1 1 1h2c.547 0 1-.453 1-1zm0-6V5c0-.547-.453-1-1-1h-2c-.547 0-1 .453-1 1v2c0 .547.453 1 1 1h2c.547 0 1-.453 1-1zm2-2.5v21c0 1.375-1.125 2.5-2.5 2.5h-25A2.507 2.507 0 0 1 0 25.5v-21C0 3.125 1.125 2 2.5 2h25C28.875 2 30 3.125 30 4.5z"/></symbol><symbol id="icon-favorite" viewBox="0 0 34 32"><path d="m17.231 31.705-2.412-2.412C5.859 21.367.001 16.025.001 9.478.001 4.136 4.136.001 9.478.001c2.929 0 5.858 1.378 7.754 3.618 1.895-2.24 4.825-3.618 7.754-3.618 5.342 0 9.477 4.135 9.477 9.477 0 6.548-5.858 11.889-14.818 19.815l-2.412 2.412z"/></symbol></defs></svg>